<svg xmlns="http://www.w3.org/2000/svg" width="26.002" height="20.043" viewBox="0 0 26.002 20.043"><defs><style>.a{opacity:0.75;}.b{fill:#4e4e4e;}</style></defs><g class="a"><g transform="translate(0)"><ellipse class="b" cx="3.792" cy="3.792" rx="3.792" ry="3.792" transform="translate(9.209 7.584)"/><rect class="b" width="2.167" height="1.083" transform="translate(2.167 1.083)"/><path class="b" d="M25.835,10.209h-5.4a1.081,1.081,0,0,1-1.008-.683l-.265-.666a2.16,2.16,0,0,0-2.01-1.36h-4.3a2.16,2.16,0,0,0-2.01,1.36l-.265.666a1.081,1.081,0,0,1-1.008.683h-5.4A2.166,2.166,0,0,0,2,12.375v13a2.17,2.17,0,0,0,2.167,2.167H25.835A2.17,2.17,0,0,0,28,25.376v-13A2.166,2.166,0,0,0,25.835,10.209ZM15,25.376a6.5,6.5,0,1,1,6.5-6.5A6.506,6.506,0,0,1,15,25.376ZM25.293,14H24.21V12.917h1.083Z" transform="translate(-2 -7.5)"/></g></g></svg>