<svg xmlns="http://www.w3.org/2000/svg" width="21.177" height="21.177" viewBox="0 0 21.177 21.177"><defs><style>.a{fill:#030504;}</style></defs><g transform="translate(0 0)"><path class="a" d="M1009.952-415.254a10.588,10.588,0,0,1-10.589-10.588,10.589,10.589,0,0,1,10.588-10.589,10.589,10.589,0,0,1,10.589,10.588h0A10.6,10.6,0,0,1,1009.952-415.254Zm-3.365-8.67a3.05,3.05,0,0,0,.728,2.126,3.125,3.125,0,0,0,2.055.941v1.281h1.029v-1.287a3.025,3.025,0,0,0,1.89-.809,2.427,2.427,0,0,0,.686-1.787,2.716,2.716,0,0,0-.181-1.032,2.419,2.419,0,0,0-.524-.79,3.7,3.7,0,0,0-.842-.621,11.781,11.781,0,0,0-1.271-.586,3.14,3.14,0,0,1-1.058-.608,1.1,1.1,0,0,1-.286-.789,1.153,1.153,0,0,1,.291-.832,1.093,1.093,0,0,1,.822-.3,1.065,1.065,0,0,1,.858.386,1.8,1.8,0,0,1,.32,1.161h1.87a3.161,3.161,0,0,0-.647-2.055,2.714,2.714,0,0,0-1.793-.954v-1.4H1009.5v1.386a2.957,2.957,0,0,0-1.857.815,2.441,2.441,0,0,0-.7,1.793,2.7,2.7,0,0,0,.2,1.094,2.41,2.41,0,0,0,.57.8,3.916,3.916,0,0,0,.877.6,11.837,11.837,0,0,0,1.217.528,2.7,2.7,0,0,1,1,.579,1.2,1.2,0,0,1,.294.845,1.051,1.051,0,0,1-.33.812,1.291,1.291,0,0,1-.9.3,1.338,1.338,0,0,1-1.052-.412,1.73,1.73,0,0,1-.366-1.181Z" transform="translate(-999.363 436.431)"/></g></svg>