<svg xmlns="http://www.w3.org/2000/svg" width="21.243" height="17.841" viewBox="0 0 21.243 17.841"><defs><style>.a{fill:#030504;}</style></defs><g transform="translate(0 0)"><g transform="translate(1.681 0)"><path class="a" d="M-616.085-413.461a3.486,3.486,0,0,1-3.486-3.486,3.486,3.486,0,0,1,3.486-3.486,3.486,3.486,0,0,1,3.486,3.486A3.49,3.49,0,0,1-616.085-413.461Z" transform="translate(619.571 420.432)"/></g><g transform="translate(12.59 0)"><path class="a" d="M-505.355-413.461a3.486,3.486,0,0,1-3.486-3.486,3.486,3.486,0,0,1,3.486-3.486,3.486,3.486,0,0,1,3.486,3.486h0A3.49,3.49,0,0,1-505.355-413.461Z" transform="translate(508.841 420.432)"/></g><g transform="translate(0 6.768)"><g transform="translate(9.031)"><path class="a" d="M-537.064-348.347a2.963,2.963,0,0,1,.83-2.057,4.709,4.709,0,0,1-5.263-1.326h-3.473a5.94,5.94,0,0,1,2.329,4.716v6.356h5.946v-3.281a.615.615,0,0,1,.615-.615.615.615,0,0,1,.615.615v3.281h1.64a.615.615,0,0,0,.615-.615v-4.1h-.882A2.976,2.976,0,0,1-537.064-348.347Z" transform="translate(544.97 351.73)"/><g transform="translate(11.758 6.349)"><path class="a" d="M-425.61-287.285h0S-425.613-287.285-425.61-287.285Z" transform="translate(425.613 287.286)"/></g></g><g transform="translate(18.154 1.64)"><path class="a" d="M-449.888-331.593h-.718a1.743,1.743,0,0,1-1.756-1.73,1.743,1.743,0,0,1,1.73-1.756h.026a1.334,1.334,0,0,1,1.333,1.333v1.538A.615.615,0,0,1-449.888-331.593Z" transform="translate(452.362 335.079)"/></g><g transform="translate(0 0.82)"><g transform="translate(0.451)"><path class="a" d="M-624.689-343.4a4.706,4.706,0,0,1-4.345.506,2.971,2.971,0,0,1-.081,4.2,2.97,2.97,0,0,1-2.062.83h-.882v4.1a.615.615,0,0,0,.615.615h1.641v-3.28a.615.615,0,0,1,.615-.615.615.615,0,0,1,.615.615v3.28h5.946v-6.357A4.715,4.715,0,0,0-624.689-343.4Z" transform="translate(632.059 343.405)"/><g transform="translate(0 5.529)"><path class="a" d="M-632.059-287.286h0S-632.054-287.286-632.059-287.286Z" transform="translate(632.059 287.286)"/></g></g><g transform="translate(0 0.82)"><path class="a" d="M-636.638-332.208v-1.538a1.334,1.334,0,0,1,1.333-1.333,1.743,1.743,0,0,1,1.73,1.756,1.743,1.743,0,0,1-1.73,1.73h-.718A.615.615,0,0,1-636.638-332.208Z" transform="translate(636.638 335.079)"/></g></g></g></g></svg>