<svg xmlns="http://www.w3.org/2000/svg" width="21.301" height="17.434" viewBox="0 0 21.301 17.434"><defs><style>.a{fill:#030504;}</style></defs><g transform="translate(3.264 3.268)"><path class="a" d="M67.738-384.258H51.294a.8.8,0,0,0-.8.8h0v12.574a.8.8,0,0,0,.8.8H67.738a.8.8,0,0,0,.8-.8v-12.574A.8.8,0,0,0,67.738-384.258Zm-12.39,1.964a1.608,1.608,0,0,1,1.608,1.609,1.608,1.608,0,0,1-1.609,1.608,1.608,1.608,0,0,1-1.608-1.608,1.608,1.608,0,0,1,1.608-1.608Zm11.363,10.372H52.321l3.536-5.19a.507.507,0,0,1,.9,0c.494.637,1.306,1.745,1.306,1.745a.41.41,0,0,0,.592,0c.3-.3,3.117-4.094,3.117-4.094s.417-.79,1,0,3.94,5.236,3.94,5.236Z" transform="translate(-50.498 384.258)"/></g><g transform="translate(0 0)"><path class="a" d="M36.776-417.432H18.159a.8.8,0,0,0-.8.8h0v12.76a.8.8,0,0,0,.8.8h1.305v-11.148a1.1,1.1,0,0,1,1.1-1.1h17v-1.305A.8.8,0,0,0,36.776-417.432Z" transform="translate(-17.362 417.432)"/></g></svg>