<svg xmlns="http://www.w3.org/2000/svg" width="17.652" height="18.009" viewBox="0 0 17.652 18.009"><defs><style>.a{fill:#4285f4;}.b{fill:#34a853;}.c{fill:#fbbc04;}.d{fill:#ea4335;}</style></defs><g transform="translate(0.05 0.018)"><path class="a" d="M280.748,224.93a10.587,10.587,0,0,0-.156-1.83H272.1v3.467h4.863a4.168,4.168,0,0,1-1.8,2.736v2.25h2.9A8.794,8.794,0,0,0,280.748,224.93Z" transform="translate(-263.146 -215.737)"/><path class="b" d="M36.946,331.579a8.619,8.619,0,0,0,5.968-2.174l-2.9-2.25a5.461,5.461,0,0,1-8.119-2.855H28.9v2.319A9.005,9.005,0,0,0,36.946,331.579Z" transform="translate(-27.992 -313.588)"/><path class="c" d="M3.9,155.767a5.393,5.393,0,0,1,0-3.447V150H.908a9.012,9.012,0,0,0,0,8.086Z" transform="translate(0 -145.055)"/><path class="d" d="M36.946,3.545A4.893,4.893,0,0,1,40.4,4.9l2.571-2.571A8.654,8.654,0,0,0,36.946-.018,9,9,0,0,0,28.9,4.945l2.991,2.319A5.386,5.386,0,0,1,36.946,3.545Z" transform="translate(-27.992 0)"/></g></svg>