<svg xmlns="http://www.w3.org/2000/svg" width="18.599" height="21.081" viewBox="0 0 18.599 21.081"><defs><style>.a{fill:#030504;}</style></defs><g transform="translate(0 0)"><path class="a" d="M446.433-426.146l-8.222-8.223a1.236,1.236,0,0,0-1.748,0,1.236,1.236,0,0,0,0,1.748l8.223,8.222a1.235,1.235,0,0,0,1.747,0,1.235,1.235,0,0,0,0-1.747Z" transform="translate(-428.443 434.898)"/><path class="a" d="M406.159-401.478a13.275,13.275,0,0,1-2.928,5.931l4.473,4.474a13.232,13.232,0,0,1,5.9-2.957l.311-.062-7.7-7.7Z" transform="translate(-398.811 405.201)"/><path class="a" d="M361.962-329.026l-3.057,3.057a1.853,1.853,0,0,0,0,2.62h0l1.747,1.747a1.852,1.852,0,0,0,2.62,0h0l3.057-3.057Zm.437,4.8a.618.618,0,0,1-.873,0,.617.617,0,0,1,0-.873l.873-.873a.617.617,0,0,1,.873,0,.617.617,0,0,1,0,.873Z" transform="translate(-358.362 339.607)"/><path class="a" d="M430.664-291.168l0,0-.624-.624a11.7,11.7,0,0,0-.995.752l.745.746a.616.616,0,0,1,0,.871h0l-.854.854-1.255-1.216-1.746,1.747,2.8,2.715a1.235,1.235,0,0,0,1.747,0,1.235,1.235,0,0,0,0-1.747l-.659-.639.84-.84A1.851,1.851,0,0,0,430.664-291.168Z" transform="translate(-419.276 306.043)"/><path class="a" d="M485.084-433.962a.617.617,0,0,0,.617-.617v-1.235a.617.617,0,0,0-.617-.618h0a.617.617,0,0,0-.618.617h0v1.235A.617.617,0,0,0,485.084-433.962Z" transform="translate(-472.043 436.432)"/><path class="a" d="M523.937-386.279H522.7a.618.618,0,0,0-.617.618.617.617,0,0,0,.617.617h1.235a.618.618,0,0,0,.618-.618A.618.618,0,0,0,523.937-386.279Z" transform="translate(-505.956 391.22)"/><path class="a" d="M510.646-421.605l1.235-1.235a.617.617,0,0,0,0-.873h0a.617.617,0,0,0-.873,0h0l-1.235,1.235a.618.618,0,0,0,.011.873A.618.618,0,0,0,510.646-421.605Z" transform="translate(-494.699 425.13)"/></g></svg>