<svg xmlns="http://www.w3.org/2000/svg" width="14.841" height="21.52" viewBox="0 0 14.841 21.52"><defs><style>.a{fill:#030504;}</style></defs><path class="a" d="M-265.069-875.363a.769.769,0,0,0-1.054-.263.773.773,0,0,0-.373.663,1.228,1.228,0,0,1-1.206,1.247,1.224,1.224,0,0,1-1.247-1.206c0-.014,0-.027,0-.044v-5.2a.763.763,0,0,0-.224-.544.763.763,0,0,0-.543-.226h0a.775.775,0,0,0-.546.228,30.605,30.605,0,0,0-3.419,4.271,24.341,24.341,0,0,0-2.361,4.4,14.008,14.008,0,0,0-1.094,5.17,7.429,7.429,0,0,0,7.393,7.448h.028a7.371,7.371,0,0,0,5.227-2.154,7.371,7.371,0,0,0,2.193-5.239v-.054A16.737,16.737,0,0,0-265.069-875.363Zm-4.649,14.379a5.9,5.9,0,0,1-5.883-5.883c0-3.236,1.731-6.517,3.183-8.7a31.211,31.211,0,0,1,1.931-2.588v3.189a2.745,2.745,0,0,0,.809,1.954,2.745,2.745,0,0,0,1.954.81h0a2.767,2.767,0,0,0,2.115-.984,13.949,13.949,0,0,1,1.774,6.319A5.9,5.9,0,0,1-269.718-860.983Z" transform="translate(277.139 880.939)"/><path class="a" d="M-240.67-774.313a.763.763,0,0,0-.543-.225h-2.661a.77.77,0,0,0-.769.769.77.77,0,0,0,.769.769h.8l-2.3,2.3-1.338-1.338a.769.769,0,0,0-1.087,0l-1.411,1.411a.77.77,0,0,0,0,1.087.764.764,0,0,0,.544.225h0a.764.764,0,0,0,.544-.225l.868-.867,1.337,1.338a.763.763,0,0,0,.543.225h0a.764.764,0,0,0,.543-.225l2.84-2.84v.8a.77.77,0,0,0,.769.769.77.77,0,0,0,.769-.769v-2.66A.763.763,0,0,0-240.67-774.313Z" transform="translate(252.156 785.02)"/></svg>