<svg xmlns="http://www.w3.org/2000/svg" width="21.178" height="21.178" viewBox="0 0 21.178 21.178"><defs><style>.a{fill:none;}.b{fill:#080909;}.c{fill:#030504;}</style></defs><g transform="translate(0 0)"><g transform="translate(0 0)"><circle class="a" cx="10.589" cy="10.589" r="10.589"/></g><path class="b" d="M1009.91-858.042a10.6,10.6,0,0,1-10.589-10.589,10.6,10.6,0,0,1,10.589-10.589A10.6,10.6,0,0,1,1020.5-868.63,10.6,10.6,0,0,1,1009.91-858.042Zm0-19.5A8.924,8.924,0,0,0,1001-868.63a8.924,8.924,0,0,0,8.914,8.914,8.924,8.924,0,0,0,8.914-8.914A8.924,8.924,0,0,0,1009.91-877.544Z" transform="translate(-999.321 879.219)"/></g><g transform="translate(7.223 4.546)"><path class="c" d="M1077.163-824.634a1.185,1.185,0,0,0-.295-.845,2.668,2.668,0,0,0-1-.579,11.78,11.78,0,0,1-1.217-.528,3.873,3.873,0,0,1-.877-.6,2.416,2.416,0,0,1-.57-.8,2.682,2.682,0,0,1-.2-1.094,2.427,2.427,0,0,1,.7-1.793,2.949,2.949,0,0,1,1.857-.816v-1.385h1.035v1.4a2.7,2.7,0,0,1,1.793.955,3.145,3.145,0,0,1,.647,2.055h-1.87a1.785,1.785,0,0,0-.32-1.162,1.059,1.059,0,0,0-.858-.385,1.091,1.091,0,0,0-.822.3,1.146,1.146,0,0,0-.291.832,1.094,1.094,0,0,0,.285.79,3.136,3.136,0,0,0,1.058.609,11.744,11.744,0,0,1,1.272.586,3.668,3.668,0,0,1,.841.621,2.4,2.4,0,0,1,.524.79,2.712,2.712,0,0,1,.181,1.032,2.416,2.416,0,0,1-.686,1.786,3.009,3.009,0,0,1-1.89.809v1.288h-1.029v-1.282a3.113,3.113,0,0,1-2.055-.942,3.037,3.037,0,0,1-.728-2.126h1.871a1.721,1.721,0,0,0,.366,1.181,1.334,1.334,0,0,0,1.052.411,1.285,1.285,0,0,0,.9-.3A1.045,1.045,0,0,0,1077.163-824.634Z" transform="translate(-1072.645 833.074)"/></g></svg>