<svg xmlns="http://www.w3.org/2000/svg" width="20.607" height="17.433" viewBox="0 0 20.607 17.433"><defs><style>.a{fill:#030504;}</style></defs><g transform="translate(0 0)"><path class="a" d="M38.746-856.94h-.211v-.27a2.225,2.225,0,0,0-2.222-2.222H22.583a2.225,2.225,0,0,0-2.222,2.222v10.5a2.225,2.225,0,0,0,2.222,2.222H22.8v.27A2.225,2.225,0,0,0,25.017-842H38.747a2.225,2.225,0,0,0,2.222-2.222v-10.5A2.225,2.225,0,0,0,38.746-856.94ZM22.583-846.048a.664.664,0,0,1-.664-.664v-10.5a.665.665,0,0,1,.664-.664h13.73a.665.665,0,0,1,.664.664v.27H25.017a2.225,2.225,0,0,0-2.222,2.222v8.671Zm16.828,1.827a.665.665,0,0,1-.664.665H25.017a.664.664,0,0,1-.664-.665v-10.5a.665.665,0,0,1,.664-.664H38.747a.665.665,0,0,1,.664.665Z" transform="translate(-20.361 859.432)"/><path class="a" d="M84.222-780.365s-2.355,3.17-2.6,3.418a.342.342,0,0,1-.495,0s-.678-.924-1.09-1.456a.423.423,0,0,0-.752,0l-2.952,4.333H88.346v-1.923s-2.8-3.711-3.29-4.371S84.222-780.365,84.222-780.365Z" transform="translate(-70.817 788.419)"/><circle class="a" cx="1.343" cy="1.343" r="1.343" transform="translate(6.699 5.689)"/></g></svg>