<svg xmlns="http://www.w3.org/2000/svg" width="19.814" height="18.45" viewBox="0 0 19.814 18.45"><defs><style>.a{fill:#030504;}</style></defs><g transform="translate(0 0)"><path class="a" d="M680.1-345.8h16.338a1.7,1.7,0,0,0,1.737-1.653v-.01a1.7,1.7,0,0,0-1.737-1.653H680.1a1.7,1.7,0,0,0-1.737,1.653v.01A1.7,1.7,0,0,0,680.1-345.8Z" transform="translate(-678.362 356.442)"/><path class="a" d="M697.649-302.241h-1q-.051-.121-.111-.236a3.289,3.289,0,0,0-3.108-1.644c-.176,0-.337,0-.492,0a7.064,7.064,0,0,0-2.53.345,2.5,2.5,0,0,0-.614.351,2.034,2.034,0,0,0-.6.778,2.481,2.481,0,0,0-.147.4h-1.547a2.567,2.567,0,0,0-.148-.4,2.038,2.038,0,0,0-.6-.778,2.514,2.514,0,0,0-.615-.351,7.08,7.08,0,0,0-2.53-.344c-.155,0-.316,0-.492,0A3.289,3.289,0,0,0,680-302.477q-.06.114-.111.236h-.944a.553.553,0,0,0-.58.525.553.553,0,0,0,.525.58h.738c-.01.118-.015.241-.015.364a3.428,3.428,0,0,0,3.495,3.348,4.469,4.469,0,0,0,3.2-1.4,4.831,4.831,0,0,0,.8-1.077,4.117,4.117,0,0,0,.286-.654,3.44,3.44,0,0,0,.14-.578h1.485a3.41,3.41,0,0,0,.14.578,4.107,4.107,0,0,0,.286.654,4.838,4.838,0,0,0,.8,1.077,4.469,4.469,0,0,0,3.2,1.4,3.428,3.428,0,0,0,3.5-3.348c0-.123,0-.246-.014-.364h.683a.553.553,0,0,0,.58-.525A.553.553,0,0,0,697.649-302.241Z" transform="translate(-678.361 315.875)"/><path class="a" d="M721.8-422.416a1.445,1.445,0,0,0-.812-.883,1.615,1.615,0,0,0-1.244-.016l-2.837,1.15a3.693,3.693,0,0,1-2.752,0l-2.837-1.15a1.614,1.614,0,0,0-1.245.016,1.445,1.445,0,0,0-.812.883l-.658,2.094h13.856Z" transform="translate(-705.62 423.432)"/><path class="a" d="M715.443-378.591H701l-.507,1.627h15.451Z" transform="translate(-698.317 383.008)"/></g></svg>