<svg xmlns="http://www.w3.org/2000/svg" width="19.446" height="17.994" viewBox="0 0 19.446 17.994"><defs><style>.a{fill:#080909;}</style></defs><g transform="translate(0 0)"><g transform="translate(0 0)"><g transform="translate(6.015)"><path class="a" d="M-889.737-420.432h-.239c-1.7,0-3.606,2.987-3.606,6.986v1.308h7.449v-1.308C-886.133-417.445-888.036-420.432-889.737-420.432Z" transform="translate(893.582 420.432)"/></g><g transform="translate(0 9.699)"><path class="a" d="M-950.231-321.977h-4.407v1.307c0,3.372,2.746,6.192,6.386,6.845a11.81,11.81,0,0,1-1.978-6.846Z" transform="translate(954.638 321.977)"/></g><g transform="translate(6.015 9.699)"><path class="a" d="M-893.578-320.671c0,4,1.9,6.988,3.606,6.988h.239c1.7,0,3.6-2.987,3.6-6.988v-1.307h-7.449Z" transform="translate(893.578 321.977)"/></g><g transform="translate(0 0.142)"><path class="a" d="M-950.232-412.146a11.8,11.8,0,0,1,1.978-6.844c-3.64.653-6.386,3.473-6.386,6.844v1.308h4.407Z" transform="translate(954.639 418.99)"/></g><g transform="translate(13.058 9.699)"><path class="a" d="M-820.109-320.671a11.8,11.8,0,0,1-1.978,6.846c3.64-.652,6.388-3.473,6.388-6.845v-1.307h-4.41Z" transform="translate(822.087 321.977)"/></g><g transform="translate(13.059 0.142)"><path class="a" d="M-822.078-418.99a11.8,11.8,0,0,1,1.977,6.844v1.308h4.409v-1.308C-815.691-415.517-818.438-418.338-822.078-418.99Z" transform="translate(822.078 418.99)"/></g></g></g></svg>