<svg xmlns="http://www.w3.org/2000/svg" width="19.412" height="18.218" viewBox="0 0 19.412 18.218"><defs><style>.a{fill:#030504;}</style></defs><path class="a" d="M698.45-856.9h-.1l-1.725-5.907a1.566,1.566,0,0,0-.754-.941,1.565,1.565,0,0,0-1.2-.132,1.6,1.6,0,0,0-.189.068l-2.678,1.167a3.125,3.125,0,0,1-2.48,0l-2.678-1.167a1.566,1.566,0,0,0-1.206-.021,1.566,1.566,0,0,0-.868.838,1.575,1.575,0,0,0-.068.188l-1.725,5.907h-.1a1.829,1.829,0,0,0-1.824,1.824v.01a1.829,1.829,0,0,0,1.824,1.824H698.45a1.829,1.829,0,0,0,1.824-1.824v-.01A1.829,1.829,0,0,0,698.45-856.9Zm-3.268-5.612a.16.16,0,0,1,.086.1l.691,2.367H685.176l.691-2.367h0a.16.16,0,0,1,.088-.1.155.155,0,0,1,.13,0l2.678,1.167a4.549,4.549,0,0,0,3.61,0l2.678-1.167A.156.156,0,0,1,695.182-862.508ZM684.258-856.9l.5-1.728h11.611l.5,1.728Zm-1.981,1.824a.41.41,0,0,1,.409-.409H698.45a.41.41,0,0,1,.408.409v.01a.41.41,0,0,1-.408.409H682.686a.41.41,0,0,1-.409-.409Z" transform="translate(-680.862 863.94)"/><path class="a" d="M699.571-749.031h-.813c-.023-.053-.048-.106-.073-.157a3.281,3.281,0,0,0-3.131-1.749c-.171,0-.327,0-.478,0a6.644,6.644,0,0,0-2.5.361,2.537,2.537,0,0,0-.63.378,2.2,2.2,0,0,0-.624.843,2.739,2.739,0,0,0-.119.322h-1.268a2.8,2.8,0,0,0-.118-.319,2.211,2.211,0,0,0-.627-.846,2.542,2.542,0,0,0-.629-.377,6.648,6.648,0,0,0-2.5-.361c-.151,0-.307,0-.478,0a3.281,3.281,0,0,0-3.131,1.749c-.026.051-.05.1-.073.157h-.813a.708.708,0,0,0-.707.708.709.709,0,0,0,.707.707h.5c0,.073,0,.146,0,.221a3.541,3.541,0,0,0,3.52,3.543,4.361,4.361,0,0,0,3.191-1.47,5.036,5.036,0,0,0,.794-1.125,4.44,4.44,0,0,0,.285-.686,3.769,3.769,0,0,0,.12-.483h1.182a3.74,3.74,0,0,0,.12.483,4.443,4.443,0,0,0,.285.686,5.039,5.039,0,0,0,.794,1.125,4.362,4.362,0,0,0,3.192,1.47,3.541,3.541,0,0,0,3.52-3.543c0-.075,0-.148,0-.221h.5a.7.7,0,0,0,.5-.208.7.7,0,0,0,.207-.5A.709.709,0,0,0,699.571-749.031Zm-1.913,1.637a2.122,2.122,0,0,1-2.1,2.127,2.966,2.966,0,0,1-2.156-1.019,3.621,3.621,0,0,1-.572-.809,3,3,0,0,1-.194-.466,2.288,2.288,0,0,1-.1-.439c0-.032-.009-.185-.009-.33a.948.948,0,0,1,.1-.461l0-.009a.785.785,0,0,1,.223-.3,1.129,1.129,0,0,1,.281-.166,5.61,5.61,0,0,1,1.964-.248c.144,0,.293,0,.457,0a1.951,1.951,0,0,1,1.864.966,2.081,2.081,0,0,1,.157.431,2.8,2.8,0,0,1,.073.46C697.654-747.579,697.658-747.487,697.658-747.394Zm-9.039-.929c0,.1-.006.276-.011.322a2.288,2.288,0,0,1-.1.44,3.014,3.014,0,0,1-.194.466,3.631,3.631,0,0,1-.572.81,2.965,2.965,0,0,1-2.154,1.018,2.121,2.121,0,0,1-2.106-2.127c0-.093,0-.184.01-.271a2.825,2.825,0,0,1,.073-.46,2.1,2.1,0,0,1,.157-.43,1.951,1.951,0,0,1,1.865-.967c.164,0,.313,0,.457,0a5.608,5.608,0,0,1,1.965.249,1.12,1.12,0,0,1,.278.164.788.788,0,0,1,.225.306l0,.01A.951.951,0,0,1,688.619-748.323Z" transform="translate(-680.866 762.069)"/></svg>