<svg xmlns="http://www.w3.org/2000/svg" width="24.631" height="24.755" viewBox="0 0 24.631 24.755"><defs><style>.a{fill:#2c62cf;stroke:rgba(0,0,0,0);stroke-miterlimit:10;}.b{fill:none;}</style></defs><g transform="translate(0 0)"><path class="a" d="M6.875,23.39H4.554A2.193,2.193,0,0,1,2.364,21.2V13.934h-.17A2.19,2.19,0,0,1,.546,10.3L8.925.746A2.2,2.2,0,0,1,10.557,0h.015a2.19,2.19,0,0,1,1.622.719l8.645,9.556a2.189,2.189,0,0,1-1.624,3.659h-.124V21.2a2.193,2.193,0,0,1-2.19,2.191H14.526V14.1H6.875v9.288Z" transform="translate(1.613 0.866)"/><g transform="translate(0 0)"><rect class="b" width="24.631" height="24.631"/></g></g></svg>