<svg xmlns="http://www.w3.org/2000/svg" width="22.042" height="25.035" viewBox="0 0 22.042 25.035"><defs><style>.a{fill:#fff;stroke:#fff;stroke-width:0.2px;}</style></defs><g transform="translate(0.1 0.1)"><g transform="translate(0 0.926)"><g transform="translate(0)"><path class="a" d="M51.034,27.965,42.8,19.736A2.182,2.182,0,0,0,39.452,22.5l-.011.057a15.226,15.226,0,0,1-4.177,7.805l-3.775,3.775a2.181,2.181,0,0,0,0,3.086l2.057,2.057a2.181,2.181,0,0,0,3.086,0l.514-.514,3.6,3.6a2.182,2.182,0,0,0,3.086-3.086L42.29,37.737l.514-.514a2.181,2.181,0,0,0,0-3.086l-.35-.35a15.228,15.228,0,0,1,5.758-2.459l.058-.012a2.185,2.185,0,0,0,2.763-.266h0A2.185,2.185,0,0,0,51.034,27.965ZM35.6,38.252a.727.727,0,0,1-1.029,0l-2.057-2.057a.727.727,0,0,1,0-1.029l3.6-3.6L39.2,34.651Zm7.2,2.057a.727.727,0,0,1-1.029,1.029l-3.6-3.6L39.2,36.709ZM40.233,35.68c.219-.219.546-.554,1.063-.995l.48.48a.727.727,0,0,1,0,1.029l-.514.514Zm.031-2.026-3.148-3.148a16.657,16.657,0,0,0,3.541-6.745l6.352,6.352A16.656,16.656,0,0,0,40.264,33.654ZM50,30.022a.727.727,0,0,1-1.029,0l-8.229-8.229a.727.727,0,1,1,1.029-1.029L50,28.994A.728.728,0,0,1,50,30.022Z" transform="translate(-30.849 -19.098)"/></g></g><g transform="translate(3.513 15.753)"><g transform="translate(0)"><path class="a" d="M105.536,324.975a.727.727,0,0,0-1.029,0L103.479,326a.727.727,0,1,0,1.029,1.029L105.536,326A.727.727,0,0,0,105.536,324.975Z" transform="translate(-103.266 -324.762)"/></g></g><g transform="translate(14.568)"><g transform="translate(0)"><path class="a" d="M331.921,0a.727.727,0,0,0-.727.727V2.182a.727.727,0,0,0,1.455,0V.727A.727.727,0,0,0,331.921,0Z" transform="translate(-331.194)"/></g></g><g transform="translate(18.932 5.819)"><path class="a" d="M423.351,119.966H421.9a.727.727,0,0,0,0,1.455h1.455a.727.727,0,1,0,0-1.455Z" transform="translate(-421.169 -119.966)"/></g><g transform="translate(17.478 1.455)"><path class="a" d="M393.875,30.2a.727.727,0,0,0-1.029,0l-1.455,1.455a.727.727,0,1,0,1.029,1.029l1.455-1.455A.727.727,0,0,0,393.875,30.2Z" transform="translate(-391.178 -29.991)"/></g></g></svg>