<svg xmlns="http://www.w3.org/2000/svg" width="23.566" height="18.165" viewBox="0 0 23.566 18.165"><g transform="translate(0)"><ellipse cx="3.437" cy="3.437" rx="3.437" ry="3.437" transform="translate(8.346 6.873)"/><rect width="1.964" height="0.982" transform="translate(1.964 0.982)"/><path d="M23.6,9.955H18.707a.979.979,0,0,1-.913-.619l-.241-.6A1.957,1.957,0,0,0,15.732,7.5h-3.9a1.957,1.957,0,0,0-1.821,1.232l-.241.6a.979.979,0,0,1-.913.619H3.964A1.963,1.963,0,0,0,2,11.919V23.7a1.966,1.966,0,0,0,1.964,1.964H23.6A1.966,1.966,0,0,0,25.566,23.7V11.919A1.963,1.963,0,0,0,23.6,9.955ZM13.783,23.7a5.891,5.891,0,1,1,5.891-5.891A5.9,5.9,0,0,1,13.783,23.7Zm9.328-10.31h-.982v-.982h.982Z" transform="translate(-2 -7.5)"/></g></svg>