<svg xmlns="http://www.w3.org/2000/svg" width="21.442" height="18.042" viewBox="0 0 21.442 18.042"><defs><style>.a{fill:#030504;}</style></defs><path class="a" d="M-617.954-855.57h0a2.18,2.18,0,0,0-.609.087,5.456,5.456,0,0,0-1.232-.805,4.013,4.013,0,0,0,1.443-2.562,4.016,4.016,0,0,0-.772-3,4.046,4.046,0,0,0-5.659-.8,4.015,4.015,0,0,0-1.572,2.663,4.015,4.015,0,0,0,.771,3c.044.059.09.116.138.173h-2.946a4.045,4.045,0,0,0-.325-5.545,4.045,4.045,0,0,0-5.711.178,4.045,4.045,0,0,0,.178,5.711q.1.095.209.183a5.452,5.452,0,0,0-1.232.805,2.164,2.164,0,0,0-.607-.087h0a1.763,1.763,0,0,0-1.758,1.758v1.867a.723.723,0,0,0,.456.67v5.139a.722.722,0,0,0,.721.721h19.087a.722.722,0,0,0,.721-.721v-5.139a.723.723,0,0,0,.456-.67v-1.867A1.763,1.763,0,0,0-617.954-855.57Zm-17.925,2.9h-.317v-1.146a.318.318,0,0,1,.316-.317.732.732,0,0,1,.731.731A.732.732,0,0,1-635.879-852.666Zm2.324,2.489h0a.722.722,0,0,0-.721.721v2.6h-1.463v-4.372a2.156,2.156,0,0,0,1.426-.661,2.158,2.158,0,0,0,.607-1.547,2.16,2.16,0,0,0-.363-1.161,4.029,4.029,0,0,1,2.369-.775h.011a4.062,4.062,0,0,1,4.051,4.051v4.466h-5.2v-2.6A.722.722,0,0,0-633.556-850.177Zm2.075-11.836a2.581,2.581,0,0,1,1.837.761,2.581,2.581,0,0,1,.761,1.838,2.6,2.6,0,0,1-2.6,2.6h0a2.6,2.6,0,0,1-2.6-2.6A2.606,2.606,0,0,1-631.481-862.012Zm11.2,11.836a.722.722,0,0,0-.721.721v2.6h-5.2v-4.466a5.465,5.465,0,0,0-1.786-4.051h5.838a4.031,4.031,0,0,1,2.381.775,2.174,2.174,0,0,0,.526,2.955,2.161,2.161,0,0,0,1.144.414v4.372h-1.462v-2.6A.722.722,0,0,0-620.277-850.176Zm-2.075-6.639a2.606,2.606,0,0,1-2.6-2.6,2.6,2.6,0,0,1,2.6-2.6,2.6,2.6,0,0,1,2.6,2.6A2.6,2.6,0,0,1-622.352-856.815Zm4.715,3v1.146h-.316a.732.732,0,0,1-.731-.732.732.732,0,0,1,.73-.731A.318.318,0,0,1-617.638-853.812Z" transform="translate(637.638 863.457)"/></svg>