<svg xmlns="http://www.w3.org/2000/svg" width="19.766" height="19.766" viewBox="0 0 19.766 19.766"><defs><style>.a{fill:#080909;}</style></defs><path class="a" d="M-943.677-871.432h-4.159a7.812,7.812,0,0,0-7.8,7.8v4.159a7.812,7.812,0,0,0,7.8,7.8h4.159a7.812,7.812,0,0,0,7.8-7.8v-4.159A7.812,7.812,0,0,0-943.677-871.432Zm-9.985,11.962h0v-1.091h3.212v1.089a10.894,10.894,0,0,0,1.441,5.708A5.835,5.835,0,0,1-953.661-859.47Zm4.653-9.866a10.888,10.888,0,0,0-1.441,5.708v1.091h-3.212v-1.091a5.836,5.836,0,0,1,4.654-5.708Zm5.965,9.865c0,3.335-1.387,5.827-2.627,5.827h-.174c-1.241,0-2.628-2.491-2.628-5.827v-1.09h5.429Zm0-3.067h-5.429v-1.091c0-3.335,1.387-5.826,2.628-5.826h.175c1.24,0,2.626,2.491,2.626,5.826Zm5.192,3.068a5.835,5.835,0,0,1-4.655,5.707,10.89,10.89,0,0,0,1.441-5.707v-1.09h3.214Zm0-3.068h-3.214v-1.091a10.9,10.9,0,0,0-1.44-5.708,5.837,5.837,0,0,1,4.654,5.708Z" transform="translate(955.639 871.432)"/></svg>