<svg xmlns="http://www.w3.org/2000/svg" width="25" height="25" viewBox="0 0 25 25"><defs><style>.a,.c{fill:none;}.a{stroke:#fff;stroke-miterlimit:10;stroke-width:1.833px;}.b{fill:#fff;}</style></defs><g transform="translate(-733.742 -139.981)"><path class="a" d="M755.775,151.146l-8.131-8.988a2.059,2.059,0,0,0-1.527-.677H746.1a2.066,2.066,0,0,0-1.535.7l-7.881,8.988a2.06,2.06,0,0,0,1.55,3.417h.16v6.833a2.063,2.063,0,0,0,2.06,2.06h11.614a2.063,2.063,0,0,0,2.06-2.06v-6.833h.117a2.059,2.059,0,0,0,1.527-3.442Z"/><rect class="b" width="6.41" height="7.047" transform="translate(743.037 155.794)"/><rect class="c" width="25" height="25" transform="translate(733.742 139.981)"/></g></svg>