<svg xmlns="http://www.w3.org/2000/svg" width="18.984" height="21.527" viewBox="0 0 18.984 21.527"><defs><style>.a{fill:#030504;}</style></defs><g transform="translate(0 0)"><path class="a" d="M366.073-872.517a2,2,0,0,0-1.424-.59h0a2,2,0,0,0-1.425.59,2.019,2.019,0,0,0-.28,2.5,12.837,12.837,0,0,1-3.532,6.593l-3.229,3.229a2,2,0,0,0-.59,1.424,1.994,1.994,0,0,0,.583,1.418l1.767,1.768a2.016,2.016,0,0,0,2.843.006l.342-.342,2.977,2.977a2,2,0,0,0,1.406.572h.026a2,2,0,0,0,1.417-.608,2,2,0,0,0,0-2.814l-1.216-1.216.336-.336a2.017,2.017,0,0,0,0-2.849l-.174-.174a12.8,12.8,0,0,1,4.715-1.978,2.022,2.022,0,0,0,2.5-.28,2.02,2.02,0,0,0,0-2.85ZM366-854.37a.472.472,0,0,1-.139.336.472.472,0,0,1-.336.139.472.472,0,0,1-.336-.139l-2.976-2.976.671-.671,2.976,2.976A.471.471,0,0,1,366-854.37Zm-6.3-2.3a.47.47,0,0,1-.335.139h0a.471.471,0,0,1-.331-.135l-1.765-1.764a.471.471,0,0,1-.139-.335.471.471,0,0,1,.139-.335l2.977-2.977,2.431,2.431-2.976,2.976Zm5.281-1.76-.336.336-.671-.671c.167-.167.385-.381.693-.65l.314.314a.471.471,0,0,1,.139.335A.471.471,0,0,1,364.984-858.435Zm-3.682-4.77a14.487,14.487,0,0,0,2.905-5.478l5.073,5.073a14.483,14.483,0,0,0-5.479,2.905Zm10.722-.511-.011.011a.475.475,0,0,1-.654,0l-7.047-7.047a.475.475,0,0,1,0-.671.475.475,0,0,1,.671,0l7.041,7.041A.476.476,0,0,1,372.025-863.716Z" transform="translate(-355.592 873.899)"/><path class="a" d="M388.292-744.106a.765.765,0,0,0-.544-.226.765.765,0,0,0-.545.226l-.88.88a.765.765,0,0,0-.226.544.765.765,0,0,0,.226.545.765.765,0,0,0,.544.226.765.765,0,0,0,.545-.226l.88-.88A.771.771,0,0,0,388.292-744.106Z" transform="translate(-383.092 757.809)"/><path class="a" d="M482.888-878.369h.01a.766.766,0,0,0,.761-.762v-1.245a.771.771,0,0,0-.77-.77.771.771,0,0,0-.77.77v1.247A.771.771,0,0,0,482.888-878.369Z" transform="translate(-469.653 881.146)"/><path class="a" d="M522.037-830.606h-1.245a.771.771,0,0,0-.77.77.771.771,0,0,0,.77.77h1.245a.771.771,0,0,0,.77-.77A.771.771,0,0,0,522.037-830.606Z" transform="translate(-503.823 835.585)"/><path class="a" d="M508.158-865.726a.765.765,0,0,0,.545-.226l1.245-1.245a.765.765,0,0,0,.226-.544.765.765,0,0,0-.226-.545.765.765,0,0,0-.544-.226.765.765,0,0,0-.545.226l-1.245,1.245a.765.765,0,0,0-.226.544.765.765,0,0,0,.226.545A.765.765,0,0,0,508.158-865.726Z" transform="translate(-492.434 869.756)"/></g></svg>