<svg xmlns="http://www.w3.org/2000/svg" width="25.316" height="25.315" viewBox="0 0 25.316 25.315"><defs><style>.a{fill:#2c62cf;}.b{fill:none;}</style></defs><g transform="translate(0)"><g transform="translate(2.049 2.064)"><path class="a" d="M22.619,46.2a2.13,2.13,0,0,0-3.013-3.013,2.1,2.1,0,0,0-.547.969,5.565,5.565,0,0,0-7.439.374L5.995,50.152a9.056,9.056,0,0,1-2.83.548,1.186,1.186,0,0,0-.792,2.021l2.546,2.545,5.213,5.213h0l2.95,2.95a1.186,1.186,0,0,0,2.021-.791,9.056,9.056,0,0,1,.548-2.83l5.626-5.626a5.565,5.565,0,0,0,.374-7.439A2.1,2.1,0,0,0,22.619,46.2Z" transform="translate(-2.025 -42.558)"/><path class="a" d="M6.2,58.383A2.12,2.12,0,1,0,9.47,61.053L6.533,58.115A2.109,2.109,0,0,0,6.2,58.383Z" transform="translate(-1.98 -42.362)"/></g><rect class="b" width="25.316" height="25.315" transform="translate(0)"/></g></svg>