<svg xmlns="http://www.w3.org/2000/svg" width="25" height="25" viewBox="0 0 25 25"><defs><style>.a,.b{fill:none;}.a{stroke:#fff;stroke-miterlimit:10;stroke-width:2px;}</style></defs><g transform="translate(-633.743 -39.98)"><circle class="a" cx="1.869" cy="1.869" r="1.869" transform="translate(640.531 58.635)"/><path class="a" d="M655.627,45.793a2,2,0,0,0-2.832-2.833,1.973,1.973,0,0,0-.513.912,5.229,5.229,0,0,0-6.992.351L640,49.511a8.518,8.518,0,0,1-2.661.514,1.115,1.115,0,0,0-.744,1.9l2.393,2.392,4.9,4.9h0l2.773,2.773a1.115,1.115,0,0,0,1.9-.744,8.517,8.517,0,0,1,.514-2.66l5.288-5.288a5.23,5.23,0,0,0,.351-6.991A1.984,1.984,0,0,0,655.627,45.793Z"/><rect class="b" width="25" height="25" transform="translate(633.743 39.98)"/></g></svg>