<svg xmlns="http://www.w3.org/2000/svg" width="31.532" height="22.372" viewBox="0 0 31.532 22.372"><defs><style>.a{fill:#7d7d7d;}.b,.c{fill:none;stroke-linecap:round;stroke-width:2px;}.b{stroke:#84807e;stroke-miterlimit:10;}.c{stroke:#827f7d;stroke-linejoin:round;}</style></defs><g transform="translate(-18 -307)"><g transform="translate(18 307)"><g transform="translate(0 0)"><path class="a" d="M-300.353,580.968a1.872,1.872,0,0,1,1.873,1.872V598.1a1.872,1.872,0,0,1-1.873,1.874,1.856,1.856,0,0,1-.933-.254l-5.51-4.814h-4.039a2.158,2.158,0,0,1-2.158-2.159v-4.554a2.158,2.158,0,0,1,2.158-2.159h4.039l5.51-4.814a1.859,1.859,0,0,1,.933-.254m0-1.683h0a3.56,3.56,0,0,0-1.773.478,1.674,1.674,0,0,0-.267.191l-5.035,4.4h-3.407a3.845,3.845,0,0,0-3.841,3.841v4.554a3.845,3.845,0,0,0,3.841,3.841h3.407l5.035,4.4a1.663,1.663,0,0,0,.266.19,3.554,3.554,0,0,0,1.774.479A3.56,3.56,0,0,0-296.8,598.1V582.84a3.559,3.559,0,0,0-3.555-3.555Z" transform="translate(314.675 -579.285)"/></g><line class="b" x2="2.915" transform="translate(4.378 9.174)"/><line class="b" y1="1.889" x2="2.221" transform="translate(11.189 5.303)"/></g><g transform="translate(39.195 309.282)"><path class="c" d="M-256.738,602.393a4.731,4.731,0,0,1,.851,2.707,4.734,4.734,0,0,1-.855,2.715" transform="translate(256.742 -596.221)"/><path class="c" d="M-248.835,592.8a9.872,9.872,0,0,1,2.2,6.215,9.851,9.851,0,0,1-2.245,6.258" transform="translate(251.754 -590.14)"/><path class="c" d="M-241.1,585.522a12.833,12.833,0,0,1,3.581,8.88,12.827,12.827,0,0,1-3.633,8.929" transform="translate(246.856 -585.522)"/></g></g></svg>