<svg xmlns="http://www.w3.org/2000/svg" width="14.548" height="21.202" viewBox="0 0 14.548 21.202"><defs><style>.a{fill:#030504;}</style></defs><path class="a" d="M-263.84-431.926a.621.621,0,0,0-.853-.21.621.621,0,0,0-.3.531,1.375,1.375,0,0,1-1.375,1.375,1.375,1.375,0,0,1-1.375-1.375v-5.206a.621.621,0,0,0-.621-.621.621.621,0,0,0-.439.182,30.375,30.375,0,0,0-3.4,4.253,24.126,24.126,0,0,0-2.347,4.376,13.868,13.868,0,0,0-1.084,5.117,7.274,7.274,0,0,0,7.274,7.274,7.274,7.274,0,0,0,7.274-7.274A16.6,16.6,0,0,0-263.84-431.926Zm-.379,8.26a.621.621,0,0,1-.621.621.621.621,0,0,1-.621-.621v-1.162l-3.093,3.093a.621.621,0,0,1-.878,0l-1.443-1.443-.972.972a.621.621,0,0,1-.878-.013.621.621,0,0,1,0-.865l1.412-1.411a.621.621,0,0,1,.878,0l1.442,1.443,2.654-2.654H-267.5a.621.621,0,0,1-.621-.621.621.621,0,0,1,.621-.621h2.661a.621.621,0,0,1,.621.621v2.661Z" transform="translate(275.638 437.432)"/></svg>